HIERARCHY
ROOT HipCenter
{
	OFFSET 0 0 0
	CHANNELS 6 Xposition Yposition Zposition Xrotation Yrotation Zrotation 
	JOINT HipCenter2
	{
		OFFSET 0 0 0
		CHANNELS 3 Xrotation Yrotation Zrotation 
		JOINT Spine
		{
			OFFSET 0 3.47 0
			CHANNELS 3 Xrotation Yrotation Zrotation 
			JOINT ShoulderCenter
			{
				OFFSET 0 17.95 0
				CHANNELS 3 Xrotation Yrotation Zrotation 
				JOINT CollarLeft
				{
					OFFSET 0 0 0
					CHANNELS 3 Xrotation Yrotation Zrotation 
					JOINT ShoulderLeft
					{
						OFFSET 13.84 0 0
						CHANNELS 3 Xrotation Yrotation Zrotation 
						JOINT ElbowLeft
						{
							OFFSET 14.14 0 0
							CHANNELS 3 Xrotation Yrotation Zrotation 
							JOINT WristLeft
							{
								OFFSET 19.16 0 0
								CHANNELS 3 Xrotation Yrotation Zrotation 
								End Site
								{
									OFFSET 6.39 0 0
								}
							}
						}
					}
				}
				JOINT Neck
				{
					OFFSET 0 0 0
					CHANNELS 3 Xrotation Yrotation Zrotation 
					JOINT Head
					{
						OFFSET 0 15.25 0
						CHANNELS 3 Xrotation Yrotation Zrotation 
						End Site
						{
							OFFSET 0 0 0
						}
					}
				}
				JOINT CollarRight
				{
					OFFSET 0 0 0
					CHANNELS 3 Xrotation Yrotation Zrotation 
					JOINT ShoulderRight
					{
						OFFSET -14.52 0 0
						CHANNELS 3 Xrotation Yrotation Zrotation 
						JOINT ElbowRight
						{
							OFFSET -14.64 0 0
							CHANNELS 3 Xrotation Yrotation Zrotation 
							JOINT WristRight
							{
								OFFSET -19.99 0 0
								CHANNELS 3 Xrotation Yrotation Zrotation 
								End Site
								{
									OFFSET -5.4 0 0
								}
							}
						}
					}
				}
			}
		}
	}
	JOINT HipLeft
	{
		OFFSET 7.81 0 0
		CHANNELS 3 Xrotation Yrotation Zrotation 
		JOINT KneeLeft
		{
			OFFSET 0 -38.71 0
			CHANNELS 3 Xrotation Yrotation Zrotation 
			JOINT AnkleLeft
			{
				OFFSET 0 -28.57 0
				CHANNELS 3 Xrotation Yrotation Zrotation 
				End Site
				{
					OFFSET 0 0 4.19
				}
			}
		}
	}
	JOINT HipRight
	{
		OFFSET -11.08 0 0
		CHANNELS 3 Xrotation Yrotation Zrotation 
		JOINT KneeRight
		{
			OFFSET 0 -35.92 0
			CHANNELS 3 Xrotation Yrotation Zrotation 
			JOINT AnkleRight
			{
				OFFSET 0 -26.52 0
				CHANNELS 3 Xrotation Yrotation Zrotation 
				End Site
				{
					OFFSET 0 0 8.36
				}
			}
		}
	}
}
MOTION
Frames: 14
Frame Time: 0.0333333
-66.32 110.23 53.23 0 -20.8369 0 -27.9852 0 -2.1991 30 0 0 -2.125 0.0569 0.9076 0 0 0 42.9344 -40.7501 33.9456 -2.522 0.6441 14.3182 -3.0913 0 14.8944 0.0899 4.1568 -11.2099 0 0 0 0 0 0 27.1038 5.9389 51.9631 0 0 -20.8503 -5.4956 0 -12.7727 -9.7857 0.0172 9.1902 14.8847 0.2443 -2.8564 0 0 0 -3.067 -0.1434 -2.3674 11.3021 -0.1017 4.4648 0 0 0 
-65.93 109.31 53.7 0 -21.8132 0 -28.0566 0 -2.5143 30 0 0 -2.0975 0.0525 1.0999 0 0 0 46.33 -43.2105 39.8297 3.7033 -0.5328 8.1752 -13.6746 0 22.2571 -0.4756 3.7198 -10.368 0 0 0 0 0 0 28.4134 3.5954 47.6113 12.4688 -1.6776 -7.5417 0.7276 0 -0.0552 -9.4874 0.0403 8.983 15.0557 0.2562 -2.8933 0 0 0 -3.0856 -0.1504 -2.4893 11.5918 -0.1121 4.0263 0 0 0 
-65.46 108.91 54.25 0 -22.9098 0 -28.1755 0 -2.7495 30 0 0 -1.9084 0.0755 0.9961 0 0 0 50.6505 -41.1008 51.8372 -3.5658 0.3769 6.0254 2.6587 0 -1.3057 -1.123 3.1949 -9.2577 0 0 0 0 0 0 29.4574 1.1682 49.8224 12.3769 -1.3314 -6.0443 -1.8417 0 0.954 -9.0757 0.0714 8.8329 15.121 0.2623 -2.9244 0 0 0 -3.0642 -0.1821 -3.0046 11.8748 -0.1353 4.1274 0 0 0 
-64.63 107.75 54.98 0 -24.7029 0 -27.962 0 -3.8076 30 0 0 -1.7833 0.04 0.7109 0 0 0 52.9211 -39.0829 59.4695 2.3588 0.0784 -1.9021 -1.9556 0 2.5173 -2.2123 1.9367 -6.0131 0 0 0 0 0 0 30.7287 -1.474 52.6116 11.8253 -1.4222 -6.7604 1.0301 0 0.5215 -8.6122 0.1071 8.8225 15.9858 0.4199 -3.9978 0 0 0 -3.1545 -0.1978 -3.3059 12.2605 -0.1453 3.6755 0 0 0 
-63.98 106.17 55.58 0 -25.7945 0 -28.4464 0 -3.6618 30 0 0 -1.6269 0.0221 0.69 0 0 0 55.7247 -41.7246 61.8553 0.2519 0.0047 -1.0753 3.0767 0 0.3443 -1.9326 2.0025 -6.114 0 0 0 0 0 0 32.6519 -6.1301 46.7547 -2.7615 -0.194 4.0149 6.0002 0 -2.695 -8.1826 0.1398 8.7982 15.9581 0.4659 -4.4549 0 0 0 -2.8763 -0.2817 -4.5227 12.2827 -0.1843 4.6145 0 0 0 
-63.2 106.62 56.26 0 -27.0383 0 -28.4432 0 -5.3474 30 0 0 -1.828 -0.0392 0.0578 0 0 0 55.3128 -41.0588 61.9 0.8734 0.0324 -2.1227 1.4127 0 3.5408 -1.4911 0.7165 -2.1393 0 0 0 0 0 0 32.5936 -5.7525 48.5091 -4.3401 -0.4976 6.5282 8.7505 0 -7.7102 -7.7925 0.1701 8.8116 15.8088 0.4498 -4.4129 0 0 0 -2.9408 -0.284 -4.6024 13.2323 -0.2673 4.7219 0 0 0 
-63.61 106.4 56.01 0 -28.4055 0 -28.7301 0 -5.3665 30 0 0 -1.9432 -0.0404 0.565 0 0 0 55.3735 -41.3055 61.695 2.0301 0.0114 -0.3225 -2.0856 0 -1.8905 -1.2964 1.9366 -5.7002 0 0 0 0 0 0 32.7163 -6.0313 48.4588 -3.5042 -0.409 6.6496 7.3998 0 -8.5142 -7.4935 0.1977 9.0205 15.279 0.4279 -4.6207 0 0 0 -3.0494 -0.2897 -4.7677 13.4719 -0.2764 4.5465 0 0 0 
-63.19 106.55 56.76 0 -29.271 0 -28.9669 0 -5.5957 30 0 0 -1.9027 -0.0502 0.6922 0 0 0 55.5199 -41.4526 61.7991 -1.6421 -0.0393 -1.3711 8.8381 0 1.2254 -1.052 2.0533 -5.9581 0 0 0 0 0 0 32.9789 -6.6172 48.4343 -3.7114 -0.4058 6.2308 7.7102 0 -7.3785 -7.3355 0.2171 9.3129 15.5168 0.5162 -5.3291 0 0 0 -3.1535 -0.2855 -4.7706 13.7109 -0.2733 4.2065 0 0 0 
-62.41 106.43 57.5 0 -29.5543 0 -29.1079 0 -5.3996 30 0 0 -1.92 -0.041 1.184 0 0 0 55.5023 -41.6647 61.4817 0.2037 0.0058 -1.6232 3.3677 0 1.9302 -1.4047 1.732 -5.1335 0 0 0 0 0 0 33.3424 -7.2798 49.2762 -3.8912 -0.4062 5.9508 7.7466 0 -6.7231 -7.1264 0.2205 8.7758 15.5993 0.5041 -5.1285 0 0 0 -3.0162 -0.331 -5.4211 13.7568 -0.3034 4.6098 0 0 0 
-62.62 107.11 57.62 0 -28.8137 0 -29.1317 0 -4.8145 30 0 0 -1.9221 -0.0343 1.0534 0 0 0 55.4177 -42.1138 60.7206 2.5069 0.1088 -2.483 -3.4809 0 4.3748 -1.3117 2.3401 -6.8829 0 0 0 0 0 0 34.0134 -7.5532 55.9187 11.5505 -0.6789 -3.3181 -1.6331 0 2.2005 -7.2851 0.1969 8.2933 15.9129 0.5019 -4.8341 0 0 0 -2.8582 -0.3548 -5.6804 13.9597 -0.3171 4.5707 0 0 0 
-62.09 107.83 58.47 0 -28.9411 0 -29.1319 0 -4.9908 30 0 0 -1.9256 -0.0375 1.0998 0 0 0 51.2872 -43.7081 50.2139 -4.1286 0.5106 7.038 -0.5791 0 0.8873 -1.5194 2.4282 -7.2246 0 0 0 0 0 0 33.9329 -7.5315 55.097 11.9287 -0.9131 -4.3138 -0.8367 0 1.5182 -7.3396 0.1961 8.4315 16.2161 0.5793 -5.3034 0 0 0 -2.9247 -0.3468 -5.6056 14.2669 -0.3256 4.3561 0 0 0 
-62.36 107.94 58.14 0 -28.2674 0 -29.1511 0 -4.8992 30 0 0 -1.881 -0.0176 1.0575 0 0 0 50.3819 -43.6921 48.303 -3.9708 0.5113 7.3253 1.144 0 -0.5649 -1.7426 3.1908 -9.577 0 0 0 0 0 0 33.735 -7.5044 52.8713 11.0154 -0.6258 -3.2113 0.884 0 -1.0965 -7.4865 0.1818 8.2715 16.4508 0.593 -5.2301 0 0 0 -2.8172 -0.3544 -5.6416 14.4873 -0.3352 4.2635 0 0 0 
-61.81 109.28 58.53 0 -27.3278 0 -29.3777 0 -5.0051 30 0 0 -1.8545 0.0543 1.0904 0 0 0 49.3126 -43.8388 45.8416 -2.5971 0.2925 6.4224 -0.5163 0 -0.6752 -1.416 3.2162 -9.4734 0 0 0 0 0 0 32.9736 -6.2427 50.9057 13.1073 -1.275 -5.459 3.1458 0 -1.3471 -7.5387 0.1727 8.0258 16.5284 0.5773 -5.032 0 0 0 -2.6461 -0.3688 -5.7347 14.6514 -0.3483 4.2728 0 0 0 
-62.17 109.61 58.48 0 -27.4609 0 -29.5511 0 -5.2216 30 0 0 -1.8189 0.0873 0.8694 0 0 0 48.282 -44.5643 42.8782 -2.1679 0.2949 7.742 1.4962 0 -2.7462 -1.2678 3.1679 -9.2558 0 0 0 0 0 0 32.2477 -5.0305 48.1295 14.3834 -1.7511 -6.795 1.2531 0 -0.0096 -7.4218 0.1747 7.7506 16.418 0.5443 -4.827 0 0 0 -2.8733 -0.3514 -5.6376 15.173 -0.3414 3.7657 0 0 0 
